<svg id="Layer_1" height="512" viewBox="0 0 512 512" width="512" xmlns="http://www.w3.org/2000/svg" xmlns:xlink="http://www.w3.org/1999/xlink" data-name="Layer 1"><linearGradient id="linear-gradient" gradientUnits="userSpaceOnUse" x1="256" x2="256" y1="478.281" y2="42.731"><stop offset=".322" stop-color="#a163f5"/><stop offset=".466" stop-color="#b074ee"/><stop offset=".752" stop-color="#d8a1dd"/><stop offset=".898" stop-color="#efbad3"/></linearGradient><linearGradient id="linear-gradient-2" x1="424.651" x2="424.651" xlink:href="#linear-gradient" y1="478.281" y2="42.731"/><linearGradient id="linear-gradient-3" x1="369.514" x2="369.514" xlink:href="#linear-gradient" y1="478.281" y2="42.731"/><linearGradient id="linear-gradient-4" x1="439.137" x2="439.137" xlink:href="#linear-gradient" y1="478.281" y2="42.731"/><linearGradient id="linear-gradient-5" x1="371.208" x2="371.208" xlink:href="#linear-gradient" y1="478.281" y2="42.731"/><linearGradient id="linear-gradient-6" x1="307.756" x2="307.756" xlink:href="#linear-gradient" y1="478.281" y2="42.731"/><linearGradient id="linear-gradient-7" x1="262.221" x2="262.221" xlink:href="#linear-gradient" y1="478.281" y2="42.731"/><linearGradient id="linear-gradient-8" x1="429.417" x2="429.417" xlink:href="#linear-gradient" y1="478.281" y2="42.731"/><linearGradient id="linear-gradient-9" x1="388.559" x2="388.559" xlink:href="#linear-gradient" y1="478.281" y2="42.731"/><linearGradient id="linear-gradient-10" x1="353.207" x2="353.207" xlink:href="#linear-gradient" y1="478.281" y2="42.731"/><linearGradient id="linear-gradient-11" x1="277.824" x2="277.824" xlink:href="#linear-gradient" y1="478.281" y2="42.731"/><linearGradient id="linear-gradient-12" x1="444.648" x2="444.648" xlink:href="#linear-gradient" y1="478.281" y2="42.731"/><linearGradient id="linear-gradient-13" x1="395.603" x2="395.603" xlink:href="#linear-gradient" y1="478.281" y2="42.731"/><linearGradient id="linear-gradient-14" x1="425.151" x2="425.151" xlink:href="#linear-gradient" y1="478.281" y2="42.731"/><linearGradient id="linear-gradient-15" x1="376.105" x2="376.105" xlink:href="#linear-gradient" y1="478.281" y2="42.731"/><linearGradient id="linear-gradient-16" x1="287.875" x2="287.875" xlink:href="#linear-gradient" y1="478.281" y2="42.731"/><path d="m476 43.051h-33.415v-12.417a6 6 0 0 0 -6-6h-181.132a6 6 0 0 0 -6 6v12.417h-43.415a26.027 26.027 0 0 0 -26 26v43.232a88.807 88.807 0 0 0 -142.955 70.434v26.893a21.454 21.454 0 0 0 -13.778 15.269 26.863 26.863 0 0 0 16.445 31.452v5.738a87.274 87.274 0 0 0 45.194 76.4v26.359l-47.333 20.2c-.111.048-.22.1-.327.152a49.92 49.92 0 0 0 -27.263 40.268c-.014.165-.021.332-.021.5v55.421a6 6 0 0 0 6 6h226.769a6 6 0 0 0 6-6v-54.491h227.231a26.028 26.028 0 0 0 26-26v-331.829a26.028 26.028 0 0 0 -26-25.998zm-214.547-6.417h169.132v22.385h-169.132zm-212.37 146.083a76.856 76.856 0 1 1 153.712 0v27.316c-14.868 1.607-60.255 4.032-96.7-20.134 25.042-3.338 55.568-11.026 78.208-28.389a6 6 0 1 0 -7.3-9.521c-41.187 31.589-114.766 28.257-115.5 28.218a6.008 6.008 0 0 0 -6.3 5.627l-1.8 29.633-3.915-2.01a.762.762 0 0 1 -.4-.519zm2.667 79.352v-10.281a6 6 0 0 0 -4.965-5.911 14.848 14.848 0 0 1 -11.825-18.142 9.348 9.348 0 0 1 5.344-6.49 12.668 12.668 0 0 0 3.7 2.888l9.8 5.031a7.676 7.676 0 0 0 11.16-6.217c0-.038.006-.075.008-.113l1.857-30.485c4.9.046 12.478-.034 21.69-.676 49.005 41.688 118.357 30.048 121.323 29.527a5.979 5.979 0 0 0 1.776-.629 9.506 9.506 0 0 1 7.343 7.164 14.844 14.844 0 0 1 -11.824 18.142 6 6 0 0 0 -4.965 5.911v10.281a75.209 75.209 0 0 1 -150.417 0zm128.291 69.14v36.269l-6.216-2.652v-29.242q3.207-2.052 6.216-4.375zm-18.216 10.791v21.542a85.4 85.4 0 0 1 -64.881 0v-19.588a87.19 87.19 0 0 0 64.881-1.954zm74.944 133.371h-214.769v-49.171a37.86 37.86 0 0 1 20.5-30.21l49.964-21.324a97.348 97.348 0 0 0 73.851 0l49.965 21.325a37.856 37.856 0 0 1 20.489 30.209zm253.231-74.491a14.013 14.013 0 0 1 -14 14h-229.348a49.945 49.945 0 0 0 -25.167-29.7c-.107-.055-.216-.1-.327-.152l-29.117-12.428v-52.548a86.854 86.854 0 0 0 22.126-57.983v-5.738a26.861 26.861 0 0 0 16.445-31.45 21.5 21.5 0 0 0 -15.817-15.9v-26.264a88.506 88.506 0 0 0 -22.754-59.317v-54.351a14.013 14.013 0 0 1 14-14h43.415v9.968a6 6 0 0 0 6 6h181.129a6 6 0 0 0 6-6v-9.966h33.415a14.013 14.013 0 0 1 14 14z" fill="url(#linear-gradient)"/><path d="m446.584 221.686h-43.866a6 6 0 0 0 0 12h43.866a6 6 0 0 0 0-12z" fill="url(#linear-gradient-2)"/><path d="m362.157 233.686h14.715a6 6 0 0 0 0-12h-14.715a6 6 0 0 0 0 12z" fill="url(#linear-gradient-3)"/><path d="m446.584 286.582h-14.895a6 6 0 1 0 0 12h14.895a6 6 0 0 0 0-12z" fill="url(#linear-gradient-4)"/><path d="m410.937 298.582a6 6 0 0 0 0-12h-79.459a6 6 0 1 0 0 12z" fill="url(#linear-gradient-5)"/><path d="m310.437 286.582h-5.361a6 6 0 0 0 0 12h5.361a6 6 0 0 0 0-12z" fill="url(#linear-gradient-6)"/><path d="m245.212 286.582a6 6 0 0 0 0 12h34.018a6 6 0 0 0 0-12z" fill="url(#linear-gradient-7)"/><path d="m446.584 346.563h-34.335a6 6 0 0 0 0 12h34.335a6 6 0 0 0 0-12z" fill="url(#linear-gradient-8)"/><path d="m390.714 346.563h-4.314a6 6 0 0 0 0 12h4.311a6 6 0 1 0 0-12z" fill="url(#linear-gradient-9)"/><path d="m369.514 346.563h-32.614a6 6 0 0 0 0 12h32.615a6 6 0 0 0 0-12z" fill="url(#linear-gradient-10)"/><path d="m310.437 346.563h-65.225a6 6 0 0 0 0 12h65.225a6 6 0 0 0 0-12z" fill="url(#linear-gradient-11)"/><path d="m446.584 170.6h-3.872a6 6 0 0 0 0 12h3.872a6 6 0 0 0 0-12z" fill="url(#linear-gradient-12)"/><path d="m374.339 182.6h42.528a6 6 0 0 0 0-12h-42.528a6 6 0 0 0 0 12z" fill="url(#linear-gradient-13)"/><path d="m446.584 120.6h-42.867a6 6 0 0 0 0 12h42.867a6 6 0 0 0 0-12z" fill="url(#linear-gradient-14)"/><path d="m374.339 132.6h3.533a6 6 0 0 0 0-12h-3.533a6 6 0 0 0 0 12z" fill="url(#linear-gradient-15)"/><g fill="url(#linear-gradient-16)"><path d="m287.875 237.92a66 66 0 1 0 -66-66 66.075 66.075 0 0 0 66 66zm0-120a54 54 0 1 1 -54 54 54.062 54.062 0 0 1 54-54z"/><path d="m270.268 198.079a6 6 0 0 0 8.485 0l43.832-43.832a6 6 0 0 0 -8.485-8.485l-39.589 39.589-12.862-12.861a6 6 0 1 0 -8.485 8.484z"/></g></svg>