<svg id="Layer_1" height="512" viewBox="0 0 512 512" width="512" xmlns="http://www.w3.org/2000/svg" xmlns:xlink="http://www.w3.org/1999/xlink" data-name="Layer 1"><linearGradient id="linear-gradient" gradientUnits="userSpaceOnUse" x1="256" x2="256" y1="480.757" y2="64.591"><stop offset=".322" stop-color="#a163f5"/><stop offset=".466" stop-color="#b074ee"/><stop offset=".752" stop-color="#d8a1dd"/><stop offset=".898" stop-color="#efbad3"/></linearGradient><linearGradient id="linear-gradient-2" x1="320.114" x2="320.114" xlink:href="#linear-gradient" y1="480.757" y2="64.591"/><linearGradient id="linear-gradient-3" x1="419.29" x2="419.29" xlink:href="#linear-gradient" y1="480.757" y2="64.591"/><linearGradient id="linear-gradient-4" x1="464.79" x2="464.79" xlink:href="#linear-gradient" y1="480.757" y2="64.591"/><linearGradient id="linear-gradient-5" x1="107.5" x2="107.5" xlink:href="#linear-gradient" y1="480.757" y2="64.591"/><linearGradient id="linear-gradient-6" x1="403.5" x2="403.5" xlink:href="#linear-gradient" y1="480.757" y2="64.591"/><path d="m453.75 107h-423.5c-9.925 0-18.25 7.729-18.25 17.654v226.7c0 3.313 2.936 5.646 6.25 5.646h37.007a52.4 52.4 0 0 0 104.487 0h191.513a52.4 52.4 0 0 0 104.487 0h38.006c3.314 0 6.25-2.327 6.25-5.64v-198.706c0-25.365-20.886-45.654-46.25-45.654zm-429.75 62h37v46h-37zm83.5 224.346a40.417 40.417 0 1 1 40.417-40.417 40.463 40.463 0 0 1 -40.417 40.417zm296 0a40.417 40.417 0 1 1 40.417-40.417 40.463 40.463 0 0 1 -40.417 40.417zm84.5-74.346h-18v-20h18zm0-94h-84.785l11.491-39.062a23.717 23.717 0 0 1 22.585-16.938h50.709zm0-68h-50.709a35.783 35.783 0 0 0 -34.1 25.547l-13.753 46.733a6.019 6.019 0 0 0 5.755 7.72h92.807v29h-124a6 6 0 0 0 0 12h124v9h-24.4c-3.314 0-5.6 2.687-5.6 6v32c0 3.313 2.283 6 5.6 6h24.4v14h-32.683a52.421 52.421 0 0 0 -103.634 0h-192.366a52.421 52.421 0 0 0 -103.634 0h-31.683v-67h300a6 6 0 0 0 0-12h-300v-39h322.836a6 6 0 0 0 5.7-4.131l19-57.909a6.072 6.072 0 0 0 -5.7-7.96h-341.836v-32.346c0-3.309 2.941-5.654 6.25-5.654h423.5c18.75 0 34.25 14.906 34.25 33.654zm-415 58v-46h48v46zm60 0v-46h48v46zm60 0v-46h48v46zm60 0v-46h48v46zm60 0v-46h44.553l-15.063 46z" fill="url(#linear-gradient)"/><path d="m376.86 131h-113.492a6 6 0 0 0 0 12h113.492a6 6 0 0 0 0-12z" fill="url(#linear-gradient-2)"/><path d="m439.6 131h-40.617a6 6 0 1 0 0 12h40.617a6 6 0 0 0 0-12z" fill="url(#linear-gradient-3)"/><path d="m467.6 131h-5.614a6 6 0 1 0 0 12h5.614a6 6 0 0 0 0-12z" fill="url(#linear-gradient-4)"/><path d="m107.5 324.5a28.429 28.429 0 1 0 28.429 28.429 28.461 28.461 0 0 0 -28.429-28.429zm0 44.858a16.429 16.429 0 1 1 16.429-16.429 16.448 16.448 0 0 1 -16.429 16.429z" fill="url(#linear-gradient-5)"/><path d="m403.5 324.5a28.429 28.429 0 1 0 28.429 28.429 28.461 28.461 0 0 0 -28.429-28.429zm0 44.858a16.429 16.429 0 1 1 16.429-16.429 16.448 16.448 0 0 1 -16.429 16.429z" fill="url(#linear-gradient-6)"/></svg>